<svg xmlns="http://www.w3.org/2000/svg" xmlns:xlink="http://www.w3.org/1999/xlink" width="1920" height="971" viewBox="0 0 1920 971"><defs><filter id="a" x="1715.5" y="308.5" width="649" height="649" filterUnits="userSpaceOnUse"><feOffset input="SourceAlpha"/><feGaussianBlur stdDeviation="49.5" result="b"/><feFlood flood-color="#11a3e7"/><feComposite operator="in" in2="b"/><feComposite in="SourceGraphic"/></filter><filter id="c" x="1337.5" y="153.5" width="350" height="350" filterUnits="userSpaceOnUse"><feOffset input="SourceAlpha"/><feGaussianBlur stdDeviation="49.5" result="d"/><feFlood flood-color="#11a3e7"/><feComposite operator="in" in2="d"/><feComposite in="SourceGraphic"/></filter><clipPath id="f"><rect width="1920" height="971"/></clipPath></defs><g id="e" clip-path="url(#f)"><g transform="translate(760 -240)"><g transform="translate(-410 0.525)" opacity="0.6"><path d="M776.4,350.907c-196.67,50.386-478.265,91.834-650.96,19.5S-22.879,147.329,85.615,61.591s355.143-66.64,473.8-34.133S724.385,89.222,785.337,138.8,989.117,385.649,986.883,438.677,973.067,300.52,776.4,350.907Z" transform="matrix(0.951, -0.309, 0.309, 0.951, 1022.455, 808.09)" fill="none" stroke="#f5f5f5" stroke-width="1" opacity="0.09"/><path d="M1163.712,525.961c-294.781,75.522-716.853,137.646-975.7,29.234s-222.3-334.369-59.687-462.879S660.636-7.568,838.479,41.156s247.275,92.576,338.632,166.88,305.439,370,302.09,449.48S1458.492,450.438,1163.712,525.961Z" transform="matrix(0.951, -0.309, 0.309, 0.951, 563.59, 839.671)" fill="none" stroke="#f5f5f5" stroke-width="1" opacity="0.09"/><path d="M1976.234,893.195c-500.6,128.253-1217.371,233.752-1656.949,49.646S-58.235,375.01,217.923,156.773,1121.9-12.852,1423.917,69.892s419.926,157.214,575.071,283.4S2517.69,981.628,2512,1116.6,2476.834,764.942,1976.234,893.195Z" transform="matrix(0.951, -0.309, 0.309, 0.951, 0, 776.271)" fill="none" stroke="#f5f5f5" stroke-width="1" opacity="0.09"/></g><g transform="translate(-571 220)" opacity="0.84"><g transform="matrix(1, 0, 0, 1, -189, 20)" filter="url(#a)"><circle cx="176" cy="176" r="176" transform="translate(1864 457)" fill="#11a3e7" opacity="0.5"/></g><circle cx="176" cy="176" r="176" transform="translate(1675 477)" fill="#11a3e7"/></g><g transform="translate(-949 65)" opacity="0.84"><g transform="matrix(1, 0, 0, 1, 189, 175)" filter="url(#c)"><circle cx="26.5" cy="26.5" r="26.5" transform="translate(1486 302)" fill="#11a3e7" opacity="0.77"/></g><circle cx="26.5" cy="26.5" r="26.5" transform="translate(1675 477)" fill="#11a3e7"/></g></g></g></svg>