<svg xmlns="http://www.w3.org/2000/svg" xmlns:xlink="http://www.w3.org/1999/xlink" width="1920" height="1860.95" viewBox="0 0 1920 1860.95"><defs><filter id="a" x="258.5" y="905.5" width="350" height="350" filterUnits="userSpaceOnUse"><feOffset input="SourceAlpha"/><feGaussianBlur stdDeviation="49.5" result="b"/><feFlood flood-color="#11a3e7"/><feComposite operator="in" in2="b"/><feComposite in="SourceGraphic"/></filter><filter id="c" x="1715.5" y="284.5" width="649" height="649" filterUnits="userSpaceOnUse"><feOffset input="SourceAlpha"/><feGaussianBlur stdDeviation="49.5" result="d"/><feFlood flood-color="#11a3e7"/><feComposite operator="in" in2="d"/><feComposite in="SourceGraphic"/></filter><clipPath id="f"><rect width="1920" height="1860.95"/></clipPath></defs><g id="e" clip-path="url(#f)"><g transform="translate(-1268 577)" opacity="0.84"><g transform="matrix(1, 0, 0, 1, 1268, -577)" filter="url(#a)"><circle cx="26.5" cy="26.5" r="26.5" transform="translate(407 1054)" fill="#11a3e7" opacity="0.77"/></g><circle cx="26.5" cy="26.5" r="26.5" transform="translate(1675 477)" fill="#11a3e7"/></g><g opacity="0.6"><path d="M2069.55,1478.805c-196.67,50.386-478.265,91.833-650.96,19.5s-148.315-223.082-39.822-308.82,355.143-66.64,473.8-34.133,164.975,61.764,225.927,111.338,203.781,246.853,201.546,299.881S2266.22,1428.419,2069.55,1478.805Z" transform="matrix(0.951, -0.309, 0.309, 0.951, -122.103, -121.474)" fill="none" stroke="#f5f5f5" stroke-width="1" opacity="0.09"/><path d="M2456.865,1653.859c-294.781,75.522-716.853,137.646-975.7,29.234s-222.3-334.369-59.687-462.879,532.311-99.885,710.154-51.16,247.275,92.576,338.633,166.88,305.439,370,302.09,449.48S2751.646,1578.337,2456.865,1653.859Z" transform="matrix(0.951, -0.309, 0.309, 0.951, -580.968, -89.892)" fill="none" stroke="#f5f5f5" stroke-width="1" opacity="0.09"/><path d="M3269.387,2021.093c-500.6,128.253-1217.371,233.752-1656.949,49.646s-377.52-567.831-101.362-786.068,903.979-169.625,1205.994-86.881S3137,1355,3292.141,1481.188s518.7,628.337,513.013,763.313S3769.988,1892.84,3269.387,2021.093Z" transform="matrix(0.951, -0.309, 0.309, 0.951, -1144.557, -153.292)" fill="none" stroke="#f5f5f5" stroke-width="1" opacity="0.09"/></g><g transform="translate(189 -44)" opacity="0.84"><g transform="matrix(1, 0, 0, 1, -189, 44)" filter="url(#c)"><circle cx="176" cy="176" r="176" transform="translate(1864 433)" fill="#11a3e7" opacity="0.5"/></g><circle cx="176" cy="176" r="176" transform="translate(1675 477)" fill="#11a3e7" opacity="0.61"/></g></g></svg>